<svg xmlns="http://www.w3.org/2000/svg" xmlns:xlink="http://www.w3.org/1999/xlink" width="500" zoomAndPan="magnify" viewBox="0 0 375 374.999991" height="500" preserveAspectRatio="xMidYMid meet" version="1.0"><defs><g/></defs><g fill="#fff" fill-opacity="1"><g transform="translate(0.0304476, 225.492919)"><g><path d="M 64.25 -14.28125 L 8.4375 -44.1875 L 8.4375 -48.75 L 64.25 -78.78125 L 64.25 -70.09375 L 20.5625 -46.40625 L 64.25 -22.984375 Z M 64.25 -14.28125 "/></g></g></g><g fill="#fff" fill-opacity="1"><g transform="translate(72.706546, 225.492919)"><g><path d="M 7.6875 15.75 L 0 15.75 L 29.90625 -98.78125 L 37.453125 -98.78125 Z M 7.6875 15.75 "/></g></g></g><g fill="#fff" fill-opacity="1"><g transform="translate(110.155366, 225.492919)"><g><path d="M 16.90625 -95.828125 C 18.632812 -95.828125 20.171875 -95.238281 21.515625 -94.0625 C 22.859375 -92.894531 23.53125 -91.054688 23.53125 -88.546875 C 23.53125 -86.023438 22.859375 -84.179688 21.515625 -83.015625 C 20.171875 -81.847656 18.632812 -81.265625 16.90625 -81.265625 C 15 -81.265625 13.394531 -81.847656 12.09375 -83.015625 C 10.789062 -84.179688 10.140625 -86.023438 10.140625 -88.546875 C 10.140625 -91.054688 10.789062 -92.894531 12.09375 -94.0625 C 13.394531 -95.238281 15 -95.828125 16.90625 -95.828125 Z M 22.5 -69.6875 L 22.5 0 L 11.046875 0 L 11.046875 -69.6875 Z M 22.5 -69.6875 "/></g></g></g><g fill="#fff" fill-opacity="1"><g transform="translate(143.693294, 225.492919)"><g><path d="M 71.640625 -34.96875 C 71.640625 -23.445312 68.710938 -14.519531 62.859375 -8.1875 C 57.015625 -1.863281 49.109375 1.296875 39.140625 1.296875 C 32.984375 1.296875 27.5 -0.109375 22.6875 -2.921875 C 17.875 -5.742188 14.082031 -9.863281 11.3125 -15.28125 C 8.539062 -20.695312 7.15625 -27.257812 7.15625 -34.96875 C 7.15625 -46.5 10.035156 -55.382812 15.796875 -61.625 C 21.554688 -67.863281 29.46875 -70.984375 39.53125 -70.984375 C 45.769531 -70.984375 51.316406 -69.570312 56.171875 -66.75 C 61.023438 -63.9375 64.816406 -59.863281 67.546875 -54.53125 C 70.273438 -49.207031 71.640625 -42.6875 71.640625 -34.96875 Z M 18.984375 -34.96875 C 18.984375 -26.738281 20.609375 -20.21875 23.859375 -15.40625 C 27.109375 -10.59375 32.285156 -8.1875 39.390625 -8.1875 C 46.410156 -8.1875 51.566406 -10.59375 54.859375 -15.40625 C 58.160156 -20.21875 59.8125 -26.738281 59.8125 -34.96875 C 59.8125 -43.207031 58.160156 -49.664062 54.859375 -54.34375 C 51.566406 -59.03125 46.367188 -61.375 39.265625 -61.375 C 32.160156 -61.375 27.003906 -59.03125 23.796875 -54.34375 C 20.585938 -49.664062 18.984375 -43.207031 18.984375 -34.96875 Z M 18.984375 -34.96875 "/></g></g></g><g fill="#fff" fill-opacity="1"><g transform="translate(222.33843, 225.492919)"><g><path d="M 44.203125 -70.984375 C 52.785156 -70.984375 59.695312 -67.992188 64.9375 -62.015625 C 70.1875 -56.035156 72.8125 -47.019531 72.8125 -34.96875 C 72.8125 -23.09375 70.1875 -14.078125 64.9375 -7.921875 C 59.695312 -1.773438 52.742188 1.296875 44.078125 1.296875 C 38.703125 1.296875 34.257812 0.300781 30.75 -1.6875 C 27.238281 -3.6875 24.488281 -6.070312 22.5 -8.84375 L 21.71875 -8.84375 C 21.800781 -7.363281 21.953125 -5.5 22.171875 -3.25 C 22.390625 -1 22.5 0.945312 22.5 2.59375 L 22.5 31.203125 L 11.046875 31.203125 L 11.046875 -69.6875 L 20.40625 -69.6875 L 21.96875 -60.203125 L 22.5 -60.203125 C 24.570312 -63.234375 27.296875 -65.785156 30.671875 -67.859375 C 34.054688 -69.941406 38.566406 -70.984375 44.203125 -70.984375 Z M 42.125 -61.375 C 35.019531 -61.375 29.992188 -59.378906 27.046875 -55.390625 C 24.097656 -51.398438 22.582031 -45.332031 22.5 -37.1875 L 22.5 -34.96875 C 22.5 -26.394531 23.90625 -19.785156 26.71875 -15.140625 C 29.53125 -10.503906 34.753906 -8.1875 42.390625 -8.1875 C 46.546875 -8.1875 50.007812 -9.332031 52.78125 -11.625 C 55.5625 -13.925781 57.625 -17.113281 58.96875 -21.1875 C 60.3125 -25.257812 60.984375 -29.898438 60.984375 -35.109375 C 60.984375 -43.078125 59.441406 -49.445312 56.359375 -54.21875 C 53.285156 -58.988281 48.539062 -61.375 42.125 -61.375 Z M 42.125 -61.375 "/></g></g></g><g fill="#fff" fill-opacity="1"><g transform="translate(302.283494, 225.492919)"><g><path d="M 64.25 -44.1875 L 8.4375 -14.28125 L 8.4375 -22.984375 L 52.125 -46.40625 L 8.4375 -70.09375 L 8.4375 -78.78125 L 64.25 -48.75 Z M 64.25 -44.1875 "/></g></g></g></svg>